<svg width="11" height="11" viewBox="0 0 11 11" fill="none" xmlns="http://www.w3.org/2000/svg">
<path d="M11 5.5C11 6.62928 10.7627 7.6052 10.2882 8.42776C9.81361 9.25032 9.16261 9.88466 8.33518 10.3308C7.50774 10.7769 6.56268 11 5.5 11C4.43732 11 3.49226 10.7769 2.66482 10.3308C1.83739 9.88466 1.18639 9.25032 0.711836 8.42776C0.237279 7.6052 0 6.62928 0 5.5C0 4.37072 0.237279 3.3948 0.711836 2.57224C1.18639 1.74968 1.83739 1.11534 2.66482 0.669202C3.49226 0.223067 4.43732 0 5.5 0C6.56268 0 7.50774 0.223067 8.33518 0.669202C9.16261 1.11534 9.81361 1.74968 10.2882 2.57224C10.7627 3.3948 11 4.37072 11 5.5ZM9.53982 5.5C9.53982 4.57288 9.35933 3.7904 8.99834 3.15257C8.64141 2.51473 8.15671 2.032 7.54425 1.70437C6.93584 1.37674 6.25443 1.21293 5.5 1.21293C4.74558 1.21293 4.06213 1.37674 3.44967 1.70437C2.84126 2.032 2.35656 2.51473 1.99558 3.15257C1.63864 3.7904 1.46018 4.57288 1.46018 5.5C1.46018 6.42712 1.63864 7.2096 1.99558 7.84743C2.35656 8.48527 2.84126 8.968 3.44967 9.29563C4.06213 9.62326 4.74558 9.78707 5.5 9.78707C6.25443 9.78707 6.93584 9.62326 7.54425 9.29563C8.15671 8.968 8.64141 8.48527 8.99834 7.84743C9.35933 7.2096 9.53982 6.42712 9.53982 5.5Z" fill="black"/>
</svg>
